<?xml version="1.0" encoding="UTF-8" standalone="no"?>
<!DOCTYPE svg PUBLIC "-//W3C//DTD SVG 1.1//EN"
 "http://www.w3.org/Graphics/SVG/1.1/DTD/svg11.dtd">
<!-- Generated by graphviz version 2.44.0 (20200408.0750)
 -->
<!-- Pages: 1 -->
<svg width="243pt" height="120pt"
 viewBox="0.00 0.00 242.50 120.00" xmlns="http://www.w3.org/2000/svg" xmlns:xlink="http://www.w3.org/1999/xlink">
<g id="graph0" class="graph" transform="scale(1 1) rotate(0) translate(4 116)">
<polygon fill="white" stroke="transparent" points="-4,4 -4,-116 238.5,-116 238.5,4 -4,4"/>
<!-- op10 -->
<g id="node1" class="node">
<title>op10</title>
<polygon fill="#f2f3f3" stroke="transparent" points="107.5,-82 107.5,-104 130.5,-104 130.5,-82 107.5,-82"/>
<text text-anchor="start" x="111.08" y="-90.2" font-family="SFMono-Regular,Consolasl,Liberation Mono,Menlo,monospace" font-size="10.00">~</text>
<text text-anchor="start" x="116.48" y="-90.2" font-family="BlinkMacSystemFont,Segoe UI,Helvetica,Arial,sans-serif" font-size="12.00"> </text>
<text text-anchor="start" x="119.48" y="-90.2" font-family="SFMono-Regular,Consolasl,Liberation Mono,Menlo,monospace" font-size="10.00">a</text>
<text text-anchor="start" x="123.92" y="-90.2" font-family="BlinkMacSystemFont,Segoe UI,Helvetica,Arial,sans-serif" font-size="12.00"> </text>
</g>
<!-- op11 -->
<g id="node2" class="node">
<title>op11</title>
<polygon fill="none" stroke="black" points="51,-32 0,-32 0,-6 51,-6 51,0 69,-19 51,-38 51,-32"/>
<polygon fill="#f2f3f3" stroke="transparent" points="12.5,-8 12.5,-30 57.5,-30 57.5,-8 12.5,-8"/>
<text text-anchor="start" x="16.39" y="-16.2" font-family="SFMono-Regular,Consolasl,Liberation Mono,Menlo,monospace" font-size="10.00">a</text>
<text text-anchor="start" x="20.83" y="-16.2" font-family="BlinkMacSystemFont,Segoe UI,Helvetica,Arial,sans-serif" font-size="12.00"> </text>
<text text-anchor="start" x="23.83" y="-16.2" font-family="SFMono-Regular,Consolasl,Liberation Mono,Menlo,monospace" font-size="10.00"> </text>
<text text-anchor="start" x="26.33" y="-16.2" font-family="BlinkMacSystemFont,Segoe UI,Helvetica,Arial,sans-serif" font-size="12.00"> </text>
<text text-anchor="start" x="29.33" y="-16.2" font-family="SFMono-Regular,Consolasl,Liberation Mono,Menlo,monospace" font-size="10.00">&amp;</text>
<text text-anchor="start" x="37.11" y="-16.2" font-family="BlinkMacSystemFont,Segoe UI,Helvetica,Arial,sans-serif" font-size="12.00"> </text>
<text text-anchor="start" x="40.11" y="-16.2" font-family="SFMono-Regular,Consolasl,Liberation Mono,Menlo,monospace" font-size="10.00"> </text>
<text text-anchor="start" x="42.61" y="-16.2" font-family="BlinkMacSystemFont,Segoe UI,Helvetica,Arial,sans-serif" font-size="12.00"> </text>
<text text-anchor="start" x="45.61" y="-16.2" font-family="SFMono-Regular,Consolasl,Liberation Mono,Menlo,monospace" font-size="10.00">b</text>
<text text-anchor="start" x="50.61" y="-16.2" font-family="BlinkMacSystemFont,Segoe UI,Helvetica,Arial,sans-serif" font-size="12.00"> </text>
</g>
<!-- op10&#45;&gt;op11 -->
<g id="edge1" class="edge">
<title>op10&#45;&gt;op11</title>
<path fill="none" stroke="black" d="M97.3,-73.83C84.57,-62.92 68.42,-49.08 55.69,-38.16"/>
</g>
<!-- op12 -->
<g id="node3" class="node">
<title>op12</title>
<polygon fill="none" stroke="black" points="132,-32 87,-32 87,-6 132,-6 132,0 150,-19 132,-38 132,-32"/>
<polygon fill="#f2f3f3" stroke="transparent" points="99.5,-8 99.5,-30 138.5,-30 138.5,-8 99.5,-8"/>
<text text-anchor="start" x="103.28" y="-16.2" font-family="SFMono-Regular,Consolasl,Liberation Mono,Menlo,monospace" font-size="10.00">a</text>
<text text-anchor="start" x="107.72" y="-16.2" font-family="BlinkMacSystemFont,Segoe UI,Helvetica,Arial,sans-serif" font-size="12.00"> </text>
<text text-anchor="start" x="110.72" y="-16.2" font-family="SFMono-Regular,Consolasl,Liberation Mono,Menlo,monospace" font-size="10.00"> </text>
<text text-anchor="start" x="113.22" y="-16.2" font-family="BlinkMacSystemFont,Segoe UI,Helvetica,Arial,sans-serif" font-size="12.00"> </text>
<text text-anchor="start" x="116.22" y="-16.2" font-family="SFMono-Regular,Consolasl,Liberation Mono,Menlo,monospace" font-size="10.00">|</text>
<text text-anchor="start" x="118.22" y="-16.2" font-family="BlinkMacSystemFont,Segoe UI,Helvetica,Arial,sans-serif" font-size="12.00"> </text>
<text text-anchor="start" x="121.22" y="-16.2" font-family="SFMono-Regular,Consolasl,Liberation Mono,Menlo,monospace" font-size="10.00"> </text>
<text text-anchor="start" x="123.72" y="-16.2" font-family="BlinkMacSystemFont,Segoe UI,Helvetica,Arial,sans-serif" font-size="12.00"> </text>
<text text-anchor="start" x="126.72" y="-16.2" font-family="SFMono-Regular,Consolasl,Liberation Mono,Menlo,monospace" font-size="10.00">b</text>
<text text-anchor="start" x="131.72" y="-16.2" font-family="BlinkMacSystemFont,Segoe UI,Helvetica,Arial,sans-serif" font-size="12.00"> </text>
</g>
<!-- op10&#45;&gt;op12 -->
<g id="edge2" class="edge">
<title>op10&#45;&gt;op12</title>
<path fill="none" stroke="black" d="M118.5,-73.83C118.5,-63 118.5,-49.29 118.5,-38.41"/>
</g>
<!-- op13 -->
<g id="node4" class="node">
<title>op13</title>
<polygon fill="none" stroke="black" points="216.5,-32 168.5,-32 168.5,-6 216.5,-6 216.5,0 234.5,-19 216.5,-38 216.5,-32"/>
<polygon fill="#f2f3f3" stroke="transparent" points="180.5,-8 180.5,-30 222.5,-30 222.5,-8 180.5,-8"/>
<text text-anchor="start" x="184.44" y="-16.2" font-family="SFMono-Regular,Consolasl,Liberation Mono,Menlo,monospace" font-size="10.00">a</text>
<text text-anchor="start" x="188.88" y="-16.2" font-family="BlinkMacSystemFont,Segoe UI,Helvetica,Arial,sans-serif" font-size="12.00"> </text>
<text text-anchor="start" x="191.88" y="-16.2" font-family="SFMono-Regular,Consolasl,Liberation Mono,Menlo,monospace" font-size="10.00"> </text>
<text text-anchor="start" x="194.38" y="-16.2" font-family="BlinkMacSystemFont,Segoe UI,Helvetica,Arial,sans-serif" font-size="12.00"> </text>
<text text-anchor="start" x="197.38" y="-16.2" font-family="SFMono-Regular,Consolasl,Liberation Mono,Menlo,monospace" font-size="10.00">^</text>
<text text-anchor="start" x="202.06" y="-16.2" font-family="BlinkMacSystemFont,Segoe UI,Helvetica,Arial,sans-serif" font-size="12.00"> </text>
<text text-anchor="start" x="205.06" y="-16.2" font-family="SFMono-Regular,Consolasl,Liberation Mono,Menlo,monospace" font-size="10.00"> </text>
<text text-anchor="start" x="207.56" y="-16.2" font-family="BlinkMacSystemFont,Segoe UI,Helvetica,Arial,sans-serif" font-size="12.00"> </text>
<text text-anchor="start" x="210.56" y="-16.2" font-family="SFMono-Regular,Consolasl,Liberation Mono,Menlo,monospace" font-size="10.00">b</text>
<text text-anchor="start" x="215.56" y="-16.2" font-family="BlinkMacSystemFont,Segoe UI,Helvetica,Arial,sans-serif" font-size="12.00"> </text>
</g>
<!-- op10&#45;&gt;op13 -->
<g id="edge3" class="edge">
<title>op10&#45;&gt;op13</title>
<path fill="none" stroke="black" d="M139.44,-73.83C152.03,-62.92 167.98,-49.08 180.56,-38.16"/>
</g>
</g>
</svg>
