<?xml version="1.0" encoding="UTF-8" standalone="no"?>
<!DOCTYPE svg PUBLIC "-//W3C//DTD SVG 1.1//EN"
 "http://www.w3.org/Graphics/SVG/1.1/DTD/svg11.dtd">
<!-- Generated by graphviz version 2.44.0 (20200408.0750)
 -->
<!-- Pages: 1 -->
<svg width="122pt" height="236pt"
 viewBox="0.00 0.00 122.00 236.00" xmlns="http://www.w3.org/2000/svg" xmlns:xlink="http://www.w3.org/1999/xlink">
<g id="graph0" class="graph" transform="scale(1 1) rotate(0) translate(4 232)">
<polygon fill="white" stroke="transparent" points="-4,4 -4,-232 118,-232 118,4 -4,4"/>
<!-- op1 -->
<g id="node1" class="node">
<title>op1</title>
<text text-anchor="start" x="46.67" y="-209.2" font-family="BlinkMacSystemFont,Segoe UI,Helvetica,Arial,sans-serif" font-size="12.00">(โฏ)</text>
</g>
<!-- op2 -->
<g id="node2" class="node">
<title>op2</title>
<polygon fill="none" stroke="black" points="84,-157 45,-157 45,-162 30,-147 45,-132 45,-137 84,-137 84,-157"/>
<text text-anchor="start" x="50.84" y="-144.2" font-family="BlinkMacSystemFont,Segoe UI,Helvetica,Arial,sans-serif" font-style="italic" font-size="12.00">a</text>
<text text-anchor="start" x="56.16" y="-144.2" font-family="BlinkMacSystemFont,Segoe UI,Helvetica,Arial,sans-serif" font-style="italic" baseline-shift="super" font-size="8.00"> &#160;b</text>
</g>
<!-- op1&#45;&gt;op2 -->
<g id="edge1" class="edge">
<title>op1&#45;&gt;op2</title>
<path fill="none" stroke="black" d="M57,-197.8C57,-187.19 57,-172.76 57,-162.16"/>
</g>
<!-- op4 -->
<g id="node4" class="node">
<title>op4</title>
<polygon fill="none" stroke="black" points="90,-91 9,-91 9,-71 90,-71 90,-66 105,-81 90,-96 90,-91"/>
<text text-anchor="start" x="20.84" y="-78.2" font-family="BlinkMacSystemFont,Segoe UI,Helvetica,Arial,sans-serif" font-style="italic" font-size="12.00">a &#160;</text>
<text text-anchor="start" x="32.16" y="-78.2" font-family="BlinkMacSystemFont,Segoe UI,Helvetica,Arial,sans-serif" font-size="12.00"> x </text>
<text text-anchor="start" x="44.16" y="-78.2" font-family="BlinkMacSystemFont,Segoe UI,Helvetica,Arial,sans-serif" font-style="italic" font-size="12.00">b</text>
<text text-anchor="start" x="56" y="-77.2" font-family="BlinkMacSystemFont,Segoe UI,Helvetica,Arial,sans-serif" font-size="12.00">, </text>
<text text-anchor="start" x="67.74" y="-78.2" font-family="BlinkMacSystemFont,Segoe UI,Helvetica,Arial,sans-serif" font-style="italic" font-size="12.00">a รท b</text>
</g>
<!-- op2&#45;&gt;op4 -->
<g id="edge2" class="edge">
<title>op2&#45;&gt;op4</title>
<path fill="none" stroke="black" d="M57,-131.8C57,-121.19 57,-106.76 57,-96.16"/>
</g>
<!-- op3 -->
<g id="node3" class="node">
<title>op3</title>
<polygon fill="none" stroke="black" points="99,-25 0,-25 0,-5 99,-5 99,0 114,-15 99,-30 99,-25"/>
<text text-anchor="start" x="11.84" y="-12.2" font-family="BlinkMacSystemFont,Segoe UI,Helvetica,Arial,sans-serif" font-style="italic" font-size="12.00">&#45;a</text>
<text text-anchor="start" x="27" y="-11.2" font-family="BlinkMacSystemFont,Segoe UI,Helvetica,Arial,sans-serif" font-size="12.00">, </text>
<text text-anchor="start" x="38.95" y="-12.2" font-family="BlinkMacSystemFont,Segoe UI,Helvetica,Arial,sans-serif" font-style="italic" font-size="12.00">a</text>
<text text-anchor="start" x="44.28" y="-12.2" font-family="BlinkMacSystemFont,Segoe UI,Helvetica,Arial,sans-serif" font-size="12.00"> &#160;+</text>
<text text-anchor="start" x="57.05" y="-12.2" font-family="BlinkMacSystemFont,Segoe UI,Helvetica,Arial,sans-serif" font-style="italic" font-size="12.00">b</text>
<text text-anchor="start" x="69" y="-11.2" font-family="BlinkMacSystemFont,Segoe UI,Helvetica,Arial,sans-serif" font-size="12.00">, </text>
<text text-anchor="start" x="80.84" y="-12.2" font-family="BlinkMacSystemFont,Segoe UI,Helvetica,Arial,sans-serif" font-style="italic" font-size="12.00">a &#45; b</text>
</g>
<!-- op4&#45;&gt;op3 -->
<g id="edge3" class="edge">
<title>op4&#45;&gt;op3</title>
<path fill="none" stroke="black" d="M57,-65.8C57,-55.19 57,-40.76 57,-30.16"/>
</g>
</g>
</svg>
