<?xml version="1.0" encoding="UTF-8" standalone="no"?>
<!DOCTYPE svg PUBLIC "-//W3C//DTD SVG 1.1//EN"
 "http://www.w3.org/Graphics/SVG/1.1/DTD/svg11.dtd">
<!-- Generated by graphviz version 2.43.0 (0)
 -->
<!-- Title: %3 Pages: 1 -->
<svg width="134pt" height="334pt"
 viewBox="0.00 0.00 134.00 334.00" xmlns="http://www.w3.org/2000/svg" xmlns:xlink="http://www.w3.org/1999/xlink">
<g id="graph0" class="graph" transform="scale(1 1) rotate(0) translate(4 330)">
<title>%3</title>
<polygon fill="white" stroke="transparent" points="-4,4 -4,-330 130,-330 130,4 -4,4"/>
<!-- op1 -->
<g id="node1" class="node">
<title>op1</title>
<polygon fill="none" stroke="black" points="90,-326 36,-326 36,-291 90,-291 90,-326"/>
<text text-anchor="start" x="54.5" y="-305.4" font-family="BlinkMacSystemFont,Segoe UI,Helvetica,Arial,sans-serif" font-size="12.00">(...)</text>
</g>
<!-- op2 -->
<g id="node2" class="node">
<title>op2</title>
<polygon fill="none" stroke="black" points="62.5,-255 7.5,-255 7.5,-220 62.5,-220 62.5,-255"/>
<text text-anchor="start" x="18.5" y="-234.4" font-family="BlinkMacSystemFont,Segoe UI,Helvetica,Arial,sans-serif" font-size="12.00">x as T</text>
</g>
<!-- op1&#45;&gt;op2 -->
<g id="edge1" class="edge">
<title>op1&#45;&gt;op2</title>
<path fill="none" stroke="black" d="M56.22,-290.8C51.82,-279.95 46.11,-265.87 41.72,-255.05"/>
</g>
<!-- op4 -->
<g id="node4" class="node">
<title>op4</title>
<polygon fill="none" stroke="black" points="126,-151.5 72,-151.5 72,-116.5 126,-116.5 126,-151.5"/>
<text text-anchor="start" x="86" y="-130.9" font-family="BlinkMacSystemFont,Segoe UI,Helvetica,Arial,sans-serif" font-size="12.00">not x</text>
</g>
<!-- op1&#45;&gt;op4 -->
<g id="edge2" class="edge">
<title>op1&#45;&gt;op4</title>
<path fill="none" stroke="black" d="M66.45,-290.96C73.32,-258.07 88.61,-184.8 95.51,-151.74"/>
</g>
<!-- op5 -->
<g id="node5" class="node">
<title>op5</title>
<polygon fill="none" stroke="black" points="54,-184 0,-184 0,-84 54,-84 54,-184"/>
<text text-anchor="start" x="11" y="-163.4" font-family="BlinkMacSystemFont,Segoe UI,Helvetica,Arial,sans-serif" font-size="12.00">x == y</text>
<text text-anchor="start" x="13" y="-150.4" font-family="BlinkMacSystemFont,Segoe UI,Helvetica,Arial,sans-serif" font-size="12.00">x != y</text>
<text text-anchor="start" x="14.5" y="-137.4" font-family="BlinkMacSystemFont,Segoe UI,Helvetica,Arial,sans-serif" font-size="12.00">x &lt; y</text>
<text text-anchor="start" x="11" y="-124.4" font-family="BlinkMacSystemFont,Segoe UI,Helvetica,Arial,sans-serif" font-size="12.00">x &lt;= y</text>
<text text-anchor="start" x="14.5" y="-111.4" font-family="BlinkMacSystemFont,Segoe UI,Helvetica,Arial,sans-serif" font-size="12.00">x &gt; y</text>
<text text-anchor="start" x="11" y="-98.4" font-family="BlinkMacSystemFont,Segoe UI,Helvetica,Arial,sans-serif" font-size="12.00">x &gt;= y</text>
</g>
<!-- op2&#45;&gt;op5 -->
<g id="edge4" class="edge">
<title>op2&#45;&gt;op5</title>
<path fill="none" stroke="black" d="M33.68,-219.74C32.91,-209.94 31.89,-197.02 30.88,-184.22"/>
</g>
<!-- op3 -->
<g id="node3" class="node">
<title>op3</title>
<polygon fill="none" stroke="black" points="75.5,-42 32.5,-42 32.5,-6 75.5,-6 75.5,0 93.5,-24 75.5,-48 75.5,-42"/>
<text text-anchor="start" x="43.5" y="-27.4" font-family="BlinkMacSystemFont,Segoe UI,Helvetica,Arial,sans-serif" font-size="12.00">x and y</text>
<text text-anchor="start" x="48.5" y="-14.4" font-family="BlinkMacSystemFont,Segoe UI,Helvetica,Arial,sans-serif" font-size="12.00">x or y</text>
</g>
<!-- op4&#45;&gt;op3 -->
<g id="edge3" class="edge">
<title>op4&#45;&gt;op3</title>
<path fill="none" stroke="black" d="M93.38,-116.12C87.28,-97.85 77.53,-68.59 70.72,-48.17"/>
</g>
<!-- op5&#45;&gt;op3 -->
<g id="edge5" class="edge">
<title>op5&#45;&gt;op3</title>
<path fill="none" stroke="black" d="M43.42,-83.74C47.57,-71.28 51.84,-58.48 55.33,-48.02"/>
</g>
</g>
</svg>
