<?xml version="1.0" encoding="UTF-8" standalone="no"?>
<!DOCTYPE svg PUBLIC "-//W3C//DTD SVG 1.1//EN"
 "http://www.w3.org/Graphics/SVG/1.1/DTD/svg11.dtd">
<!-- Generated by graphviz version 2.43.0 (0)
 -->
<!-- Title: %3 Pages: 1 -->
<svg width="134pt" height="278pt"
 viewBox="0.00 0.00 134.00 278.00" xmlns="http://www.w3.org/2000/svg" xmlns:xlink="http://www.w3.org/1999/xlink">
<g id="graph0" class="graph" transform="scale(1 1) rotate(0) translate(4 274)">
<title>%3</title>
<polygon fill="white" stroke="transparent" points="-4,4 -4,-274 130,-274 130,4 -4,4"/>
<!-- op1 -->
<g id="node1" class="node">
<title>op1</title>
<polygon fill="none" stroke="black" points="89,-270 35,-270 35,-249 89,-249 89,-270"/>
<text text-anchor="start" x="53.5" y="-256.4" font-family="BlinkMacSystemFont,Segoe UI,Helvetica,Arial,sans-serif" font-size="12.00">(...)</text>
</g>
<!-- op2 -->
<g id="node2" class="node">
<title>op2</title>
<polygon fill="none" stroke="black" points="58,-213 4,-213 4,-192 58,-192 58,-213"/>
<text text-anchor="start" x="14.5" y="-199.4" font-family="BlinkMacSystemFont,Segoe UI,Helvetica,Arial,sans-serif" font-size="12.00">x as T</text>
</g>
<!-- op1&#45;&gt;op2 -->
<g id="edge1" class="edge">
<title>op1&#45;&gt;op2</title>
<path fill="none" stroke="black" d="M56.6,-248.92C50.98,-238.95 42.22,-223.41 36.55,-213.34"/>
</g>
<!-- op4 -->
<g id="node4" class="node">
<title>op4</title>
<polygon fill="none" stroke="black" points="126,-123.5 72,-123.5 72,-102.5 126,-102.5 126,-123.5"/>
<text text-anchor="start" x="86" y="-109.9" font-family="BlinkMacSystemFont,Segoe UI,Helvetica,Arial,sans-serif" font-size="12.00">not x</text>
</g>
<!-- op1&#45;&gt;op4 -->
<g id="edge2" class="edge">
<title>op1&#45;&gt;op4</title>
<path fill="none" stroke="black" d="M64.54,-248.57C71.34,-222.04 89.84,-149.79 96.54,-123.62"/>
</g>
<!-- op5 -->
<g id="node5" class="node">
<title>op5</title>
<polygon fill="none" stroke="black" points="54,-156 0,-156 0,-70 54,-70 54,-156"/>
<text text-anchor="start" x="11" y="-142.4" font-family="BlinkMacSystemFont,Segoe UI,Helvetica,Arial,sans-serif" font-size="12.00">x == y</text>
<text text-anchor="start" x="13" y="-129.4" font-family="BlinkMacSystemFont,Segoe UI,Helvetica,Arial,sans-serif" font-size="12.00">x != y</text>
<text text-anchor="start" x="14.5" y="-116.4" font-family="BlinkMacSystemFont,Segoe UI,Helvetica,Arial,sans-serif" font-size="12.00">x &lt; y</text>
<text text-anchor="start" x="11" y="-103.4" font-family="BlinkMacSystemFont,Segoe UI,Helvetica,Arial,sans-serif" font-size="12.00">x &lt;= y</text>
<text text-anchor="start" x="14.5" y="-90.4" font-family="BlinkMacSystemFont,Segoe UI,Helvetica,Arial,sans-serif" font-size="12.00">x &gt; y</text>
<text text-anchor="start" x="11" y="-77.4" font-family="BlinkMacSystemFont,Segoe UI,Helvetica,Arial,sans-serif" font-size="12.00">x &gt;= y</text>
</g>
<!-- op2&#45;&gt;op5 -->
<g id="edge4" class="edge">
<title>op2&#45;&gt;op5</title>
<path fill="none" stroke="black" d="M30.56,-191.8C30.16,-183.08 29.54,-169.64 28.94,-156.36"/>
</g>
<!-- op3 -->
<g id="node3" class="node">
<title>op3</title>
<polygon fill="none" stroke="black" points="73.5,-28.33 35.5,-28.33 35.5,-5.67 73.5,-5.67 73.5,0 90.5,-17 73.5,-34 73.5,-28.33"/>
<text text-anchor="start" x="43.5" y="-20.4" font-family="BlinkMacSystemFont,Segoe UI,Helvetica,Arial,sans-serif" font-size="12.00">x and y</text>
<text text-anchor="start" x="48.5" y="-7.4" font-family="BlinkMacSystemFont,Segoe UI,Helvetica,Arial,sans-serif" font-size="12.00">x or y</text>
</g>
<!-- op4&#45;&gt;op3 -->
<g id="edge3" class="edge">
<title>op4&#45;&gt;op3</title>
<path fill="none" stroke="black" d="M95.28,-102.29C89.1,-86.16 76.65,-53.65 69.15,-34.06"/>
</g>
<!-- op5&#45;&gt;op3 -->
<g id="edge5" class="edge">
<title>op5&#45;&gt;op3</title>
<path fill="none" stroke="black" d="M43.1,-69.95C47.97,-57.24 53.03,-44.04 56.82,-34.13"/>
</g>
</g>
</svg>
