<?xml version="1.0" encoding="UTF-8" standalone="no"?>
<!DOCTYPE svg PUBLIC "-//W3C//DTD SVG 1.1//EN"
 "http://www.w3.org/Graphics/SVG/1.1/DTD/svg11.dtd">
<!-- Generated by graphviz version 2.43.0 (0)
 -->
<!-- Title: %3 Pages: 1 -->
<svg width="154pt" height="331pt"
 viewBox="0.00 0.00 153.64 331.02" xmlns="http://www.w3.org/2000/svg" xmlns:xlink="http://www.w3.org/1999/xlink">
<g id="graph0" class="graph" transform="scale(1 1) rotate(0) translate(4 327.02)">
<title>%3</title>
<polygon fill="white" stroke="transparent" points="-4,4 -4,-327.02 149.64,-327.02 149.64,4 -4,4"/>
<!-- op1 -->
<g id="node1" class="node">
<title>op1</title>
<ellipse fill="none" stroke="black" cx="73.94" cy="-308.17" rx="27" ry="14.7"/>
<text text-anchor="start" x="65.44" y="-305.07" font-family="Segoe UI,Helvetica,Arial,sans-serif" font-size="12.00">(...)</text>
</g>
<!-- op2 -->
<g id="node2" class="node">
<title>op2</title>
<ellipse fill="none" stroke="black" cx="42.94" cy="-242.47" rx="34.8" ry="14.7"/>
<text text-anchor="start" x="26.44" y="-239.37" font-family="Segoe UI,Helvetica,Arial,sans-serif" font-size="12.00">x as T</text>
</g>
<!-- op1&#45;&gt;op2 -->
<g id="edge1" class="edge">
<title>op1&#45;&gt;op2</title>
<path fill="none" stroke="black" d="M67.37,-293.66C62.18,-283 54.96,-268.17 49.72,-257.4"/>
</g>
<!-- op4 -->
<g id="node4" class="node">
<title>op4</title>
<ellipse fill="none" stroke="black" cx="115.94" cy="-130.81" rx="29.9" ry="14.7"/>
<text text-anchor="start" x="102.94" y="-127.71" font-family="Segoe UI,Helvetica,Arial,sans-serif" font-size="12.00">not x</text>
</g>
<!-- op1&#45;&gt;op4 -->
<g id="edge2" class="edge">
<title>op1&#45;&gt;op4</title>
<path fill="none" stroke="black" d="M77.69,-293.23C80.34,-283.25 83.95,-269.48 86.94,-257.32 96.87,-216.93 107.68,-168.97 112.85,-145.77"/>
</g>
<!-- op5 -->
<g id="node5" class="node">
<title>op5</title>
<ellipse fill="none" stroke="black" cx="33.94" cy="-130.81" rx="33.88" ry="60.62"/>
<text text-anchor="start" x="17.94" y="-160.21" font-family="Segoe UI,Helvetica,Arial,sans-serif" font-size="12.00">x == y</text>
<text text-anchor="start" x="19.94" y="-147.21" font-family="Segoe UI,Helvetica,Arial,sans-serif" font-size="12.00">x != y</text>
<text text-anchor="start" x="21.44" y="-134.21" font-family="Segoe UI,Helvetica,Arial,sans-serif" font-size="12.00">x &lt; y</text>
<text text-anchor="start" x="17.94" y="-121.21" font-family="Segoe UI,Helvetica,Arial,sans-serif" font-size="12.00">x &lt;= y</text>
<text text-anchor="start" x="21.44" y="-108.21" font-family="Segoe UI,Helvetica,Arial,sans-serif" font-size="12.00">x &gt; y</text>
<text text-anchor="start" x="17.94" y="-95.21" font-family="Segoe UI,Helvetica,Arial,sans-serif" font-size="12.00">x &gt;= y</text>
</g>
<!-- op2&#45;&gt;op5 -->
<g id="edge4" class="edge">
<title>op2&#45;&gt;op5</title>
<path fill="none" stroke="black" d="M41.8,-227.58C41.03,-218.13 39.94,-204.91 38.82,-191.3"/>
</g>
<!-- op3 -->
<g id="node3" class="node">
<title>op3</title>
<polygon fill="none" stroke="black" points="85.44,-28.33 47.44,-28.33 47.44,-5.67 85.44,-5.67 85.44,0 102.44,-17 85.44,-34 85.44,-28.33"/>
<text text-anchor="start" x="55.44" y="-20.4" font-family="Segoe UI,Helvetica,Arial,sans-serif" font-size="12.00">x and y</text>
<text text-anchor="start" x="60.44" y="-7.4" font-family="Segoe UI,Helvetica,Arial,sans-serif" font-size="12.00">x or y</text>
</g>
<!-- op4&#45;&gt;op3 -->
<g id="edge3" class="edge">
<title>op4&#45;&gt;op3</title>
<path fill="none" stroke="black" d="M110.91,-116.1C103.34,-95.46 89.05,-56.46 80.94,-34.36"/>
</g>
<!-- op5&#45;&gt;op3 -->
<g id="edge5" class="edge">
<title>op5&#45;&gt;op3</title>
<path fill="none" stroke="black" d="M52.4,-79.47C58.4,-63.12 64.62,-46.13 69.01,-34.17"/>
</g>
</g>
</svg>
